<?xml version="1.0" encoding="utf-8"?>
<!-- Generator: Adobe Illustrator 25.2.0, SVG Export Plug-In . SVG Version: 6.00 Build 0)  -->
<svg version="1.1" id="Layer_1" xmlns="http://www.w3.org/2000/svg" xmlns:xlink="http://www.w3.org/1999/xlink" x="0px" y="0px"
	 viewBox="0 0 1000 1000" style="enable-background:new 0 0 1000 1000;" xml:space="preserve">
<style type="text/css">
	.st0{fill:#FFFFFF;}
</style>
<path class="st0" d="M727.7,376.9c-189.2,0-189,189-189,189s-13,188,189,188c0,0,168.3,9.6,168.3-130.8h-86.6
	c0,0,2.9,52.9-78.9,52.9c0,0-86.6,5.8-86.6-85.6h254.9C899,590.5,926.8,376.9,727.7,376.9z M804.7,524.8H643.1
	c0,0,10.6-75.8,86.6-75.8S804.7,524.8,804.7,524.8z"/>
<rect x="621.9" y="280.8" class="st0" width="203" height="60.6"/>
<path class="st0" d="M427.2,476.4c0,0,75.1-5.6,75.1-93.6s-61.4-131-139.2-131c0,0,0,0,0,0v0H219.9h-4.2H107.1v491.9h108.6v0h147.4
	v0v0l0,0h0c0,0,156.3,4.9,156.3-145.2C519.3,598.5,526.2,476.4,427.2,476.4z M344.7,339.2h18.4h0c0,0,34.8,0,34.8,51.2
	S377.4,449,354.2,449c-0.2,0-0.3,0-0.5,0H219.9V339.2H344.7z M353.7,656.3h-1.8c-2,0-3.8-0.1-5.1-0.1c-0.2,0-0.4,0-0.6,0.1H219.9
	V524.8h143.2v-0.1l0,0c0,0,51.8-0.7,51.8,67.5C414.9,651.9,373.3,656.2,353.7,656.3z"/>
</svg>
