<?xml version="1.0" encoding="utf-8"?>
<!-- Generator: Adobe Illustrator 25.2.0, SVG Export Plug-In . SVG Version: 6.00 Build 0)  -->
<svg version="1.1" id="Layer_1" xmlns="http://www.w3.org/2000/svg" xmlns:xlink="http://www.w3.org/1999/xlink" x="0px" y="0px"
	 viewBox="0 0 2500 977" style="enable-background:new 0 0 2500 977;" xml:space="preserve">
<style type="text/css">
	.st0{fill:#16191D;}
</style>
<g>
	<g>
		<path class="st0" d="M648.2,458.3c-135.4,0-135.2,135.2-135.2,135.2s-9.3,134.6,135.2,134.6c0,0,120.4,6.9,120.4-93.6h-61.9
			c0,0,2.1,37.8-56.4,37.8c0,0-61.9,4.1-61.9-61.2h182.4C770.7,611.1,790.6,458.3,648.2,458.3z M703.2,564.1H587.6
			c0,0,7.6-54.3,61.9-54.3S703.2,564.1,703.2,564.1z"/>
		<rect x="572.4" y="389.4" class="st0" width="145.2" height="43.3"/>
		<path class="st0" d="M433.1,529.4c0,0,53.7-4,53.7-67s-43.9-93.7-99.6-93.7c0,0,0,0,0,0v0H284.7h-3H204v352h77.7v0h105.5v0v0l0,0
			h0c0,0,111.8,3.5,111.8-103.9C499,616.8,503.9,529.4,433.1,529.4z M374,431.3h13.2h0c0,0,24.9,0,24.9,36.6s-14.6,41.9-31.2,41.9
			c-0.1,0-0.2,0-0.4,0h-95.8v-78.6H374z M380.5,658.2h-1.3c-1.5,0-2.7,0-3.7,0c-0.2,0-0.3,0-0.5,0h-90.3v-94.1h102.5v0l0,0
			c0,0,37.1-0.5,37.1,48.3C424.3,655.1,394.5,658.1,380.5,658.2z"/>
		<polygon class="st0" points="1990,458.3 1990,458.3 1990,458.3 		"/>
		<path class="st0" d="M1990,458.3c-135.4,0-135.2,135.2-135.2,135.2s-9.3,134.6,135.3,134.6c0,0,120.4,6.9,120.4-93.6h-61.9
			c0,0,2.1,37.8-56.4,37.8c0,0-61.9,4.1-61.9-61.2h182.4C2112.5,611.1,2132.4,458.3,1990,458.3z M2045,564.1h-115.6
			c0,0,7.6-54.3,61.9-54.3C2045.7,509.8,2045,564.1,2045,564.1z"/>
		<path class="st0" d="M1034.3,545v-3.5h-0.1c-1.3-41.8-27-83.3-86-83.3c-44.9,0-69,28.4-78.5,43V368.7h-71.6v351.8h71.6V578
			c0-31,7.6-63.3,48.9-63.3c44.5,0,44.5,26.8,44.5,26.8l0,0l0.9,10.3v168.7h70.2V545C1034.3,545.1,1034.3,545.1,1034.3,545
			C1034.3,545,1034.3,545,1034.3,545z"/>
		<path class="st0" d="M1566.5,545v-3.5h-0.1c-1.3-41.8-27.1-83.3-86-83.3c-44.9,0-69,28.4-78.5,43.1V462h-71.6v258.5h71.6V580.8
			c0-0.8,0-1.7,0-2.8c0-31,7.6-63.3,48.9-63.3c44.5,0,44.5,26.8,44.5,26.8h0v14.6l0.9,0.2v164.1h70.2V545
			C1566.5,545.1,1566.5,545.1,1566.5,545C1566.5,545,1566.5,545,1566.5,545z"/>
		<path class="st0" d="M1293.1,671.9V521.2c0,0,8.5-62.9-104.8-62.9c-113.3,0-120.5,56.8-121.1,90.7h75.7c0,0-3-44.9,44.8-44.9
			c0,0,40.6-3.2,40.6,37.5c0,0,0,26.7-37,29.2s-130.8,1.8-130.8,78.2c0,0-2.4,80.6,83.9,80.6c0,0,59.1,1.2,83.9-35.1v26.2h78.1h0
			C1306.4,720.5,1293.1,713.7,1293.1,671.9z M1170.1,679.8c0,0-42.4,1.8-42.4-34.5c0,0-3.6-27.9,55.7-37
			c23.6-1.8,34.5-3.4,44.2-14.4V641h0C1227.7,641,1221.6,679.8,1170.1,679.8z"/>
		<path class="st0" d="M1769.4,620.9c0,0,1.8,52.1-46.7,52.1c-48.5,0-61.3-52-61.3-81.7c0-29.8,10-80.1,62.2-80.1
			c52.1,0,50.3,44.8,50.3,44.8h65c0,0,4.6-97.7-114.3-97.7c-118.9,0-131.7,96.3-131.7,134.9c0,38.7,20.1,136.2,129.9,136.2
			c109.7,0,120.7-88.4,120.7-108.5h0H1769.4z"/>
	</g>
</g>
</svg>
